<svg width="215" height="215" viewBox="0 0 215 215" fill="none" xmlns="http://www.w3.org/2000/svg">
<circle cx="107.5" cy="107.5" r="107.5" fill="#043D44"/>
<path d="M33.992 143.48L33.512 137.432L45.608 135.224L39.56 140.12C39.752 139.352 39.976 138.456 40.232 137.432C40.488 136.344 40.744 135.224 41 134.072C41.256 132.92 41.448 131.832 41.576 130.808C41.768 129.784 41.896 128.92 41.96 128.216L44.36 90.008C44.424 89.112 44.392 87.992 44.264 86.648C44.2 85.24 44.104 83.896 43.976 82.616C43.848 81.336 43.752 80.376 43.688 79.736L48.872 83.288L37.064 81.368L37.544 74.84C38.696 74.904 39.976 74.968 41.384 75.032C42.856 75.096 44.264 75.16 45.608 75.224C46.952 75.288 48.04 75.32 48.872 75.32H59.432L61.352 77.24C61.864 78.84 62.408 80.664 62.984 82.712C63.56 84.696 64.104 86.552 64.616 88.28C65.128 89.944 65.512 91.128 65.768 91.832L78.344 128.216H74.984L88.232 90.68C88.424 90.104 88.744 89.08 89.192 87.608C89.704 86.072 90.28 84.376 90.92 82.52C91.56 80.6 92.104 78.84 92.552 77.24L94.472 75.32H101.384C103.432 75.32 105.736 75.256 108.296 75.128C110.92 75 113.128 74.904 114.92 74.84L115.304 81.848L103.496 83L108.68 80.12C108.616 81.656 108.52 83.608 108.392 85.976C108.328 88.344 108.392 90.68 108.584 92.984L110.984 125.336C111.112 126.296 111.272 127.512 111.464 128.984C111.72 130.392 111.976 131.832 112.232 133.304C112.488 134.776 112.744 136.152 113 137.432C113.256 138.648 113.448 139.544 113.576 140.12L107.624 135.704L119.72 136.76L119.144 143H105.992C105.16 143 103.976 143.032 102.44 143.096C100.904 143.16 99.272 143.224 97.544 143.288C95.816 143.352 94.216 143.416 92.744 143.48L92.264 137.432L103.976 135.224L98.408 140.12C98.536 139.352 98.664 138.232 98.792 136.76C98.984 135.224 99.144 133.656 99.272 132.056C99.4 130.392 99.432 129.112 99.368 128.216L97.16 85.88L99.176 86.264L78.536 143H71.624L51.368 86.168L53.384 85.88L51.176 125.336C51.112 126.36 51.08 127.576 51.08 128.984C51.144 130.328 51.208 131.736 51.272 133.208C51.336 134.616 51.432 135.96 51.56 137.24C51.688 138.456 51.784 139.416 51.848 140.12L46.376 135.704L58.568 136.76L57.896 143H45.512C44.936 143 43.976 143.032 42.632 143.096C41.288 143.16 39.816 143.224 38.216 143.288C36.68 143.352 35.272 143.416 33.992 143.48ZM130.008 143.48L129.528 137.432L141.432 135.224L135.864 139.64C135.992 138.808 136.152 137.656 136.344 136.184C136.536 134.712 136.696 133.208 136.824 131.672C137.016 130.136 137.112 128.984 137.112 128.216V90.104C137.112 89.336 137.048 88.376 136.92 87.224C136.856 86.008 136.728 84.792 136.536 83.576C136.344 82.296 136.184 81.208 136.056 80.312C135.928 79.416 135.864 78.936 135.864 78.872L141.048 83.288L129.624 81.368L130.104 74.84C131.256 74.904 132.568 74.968 134.04 75.032C135.512 75.096 136.92 75.16 138.264 75.224C139.608 75.288 140.696 75.32 141.528 75.32C143.128 75.32 144.92 75.288 146.904 75.224C148.952 75.096 151 75 153.048 74.936C155.096 74.872 156.92 74.84 158.52 74.84C162.168 74.84 165.528 75.48 168.6 76.76C171.672 78.04 174.136 79.864 175.992 82.232C177.912 84.6 178.872 87.48 178.872 90.872C178.872 94.072 178.136 96.92 176.664 99.416C175.192 101.912 173.176 103.928 170.616 105.464C168.056 106.936 165.144 107.768 161.88 107.96L165.528 102.296V113.24L161.592 107.672C165.56 107.8 169.048 108.568 172.056 109.976C175.128 111.32 177.528 113.24 179.256 115.736C180.984 118.232 181.848 121.336 181.848 125.048C181.848 129.08 180.856 132.472 178.872 135.224C176.888 137.976 174.264 140.056 171 141.464C167.736 142.808 164.12 143.48 160.152 143.48C157.784 143.48 155.096 143.384 152.088 143.192C149.08 143.064 146.36 143 143.928 143C143.032 143 141.72 143.032 139.992 143.096C138.328 143.16 136.568 143.224 134.712 143.288C132.92 143.352 131.352 143.416 130.008 143.48ZM150.936 138.872L147.384 135.608C148.792 135.8 150.264 135.992 151.8 136.184C153.4 136.312 155.096 136.376 156.888 136.376C160.472 136.376 163.352 135.288 165.528 133.112C167.768 130.936 168.888 127.864 168.888 123.896C168.888 120.952 168.248 118.584 166.968 116.792C165.752 115 164.088 113.72 161.976 112.952C159.928 112.12 157.624 111.704 155.064 111.704H154.104L154.776 104.312H155.352C158.872 104.312 161.624 103.288 163.608 101.24C165.656 99.128 166.68 96.248 166.68 92.6C166.68 89.336 165.784 86.712 163.992 84.728C162.2 82.744 159.608 81.752 156.216 81.752C154.744 81.752 153.208 81.752 151.608 81.752C150.072 81.752 148.6 81.784 147.192 81.848L150.744 79.544C150.744 79.992 150.68 80.984 150.552 82.52C150.424 84.056 150.264 85.784 150.072 87.704C149.944 89.56 149.88 91.32 149.88 92.984V125.336C149.88 126.808 149.944 128.504 150.072 130.424C150.2 132.28 150.36 134.008 150.552 135.608C150.744 137.208 150.872 138.296 150.936 138.872Z" fill="white"/>
</svg>
