<svg width="362" height="66" viewBox="0 0 362 66" fill="none" xmlns="http://www.w3.org/2000/svg">
<path d="M34.76 48.832C34.312 49.152 33.704 49.44 32.936 49.696C32.232 49.952 31.432 50.08 30.536 50.08C29.512 50.08 28.584 49.92 27.752 49.6C26.984 49.28 26.44 48.768 26.12 48.064C22.728 40.896 19.752 34.336 17.192 28.384C14.696 22.432 12.68 17.504 11.144 13.6H10.76C10.568 18.4 10.344 22.88 10.088 27.04C9.896 31.2 9.672 35.232 9.416 39.136C9.16 42.976 8.904 46.944 8.648 51.04C8.456 55.072 8.2 59.392 7.88 64C7.496 64.128 6.984 64.256 6.344 64.384C5.768 64.512 5.128 64.576 4.424 64.576C3.016 64.576 2.024 64.288 1.448 63.712C0.872 63.072 0.584 62.24 0.584 61.216C0.584 60.448 0.648 58.688 0.776 55.936C0.968 53.12 1.16 49.696 1.352 45.664C1.608 41.632 1.896 37.344 2.216 32.8C2.536 28.192 2.856 23.68 3.176 19.264C3.56 14.784 3.912 10.752 4.232 7.168C4.744 6.72 5.48 6.304 6.44 5.92C7.4 5.536 8.488 5.344 9.704 5.344C11.176 5.344 12.424 5.632 13.448 6.20799C14.472 6.78399 15.272 7.68 15.848 8.896C17.512 12.16 19.176 15.712 20.84 19.552C22.504 23.392 24.136 27.232 25.736 31.072C27.336 34.912 28.872 38.528 30.344 41.92H30.728C33.544 35.136 36.328 28.608 39.08 22.336C41.896 16.064 44.264 10.72 46.184 6.304C46.76 5.984 47.496 5.76 48.392 5.632C49.288 5.44 50.12 5.344 50.888 5.344C52.36 5.344 53.512 5.6 54.344 6.112C55.24 6.56 55.816 7.328 56.072 8.41599C56.328 9.504 56.616 11.36 56.936 13.984C57.256 16.608 57.576 19.712 57.896 23.296C58.216 26.816 58.504 30.528 58.76 34.432C59.08 38.336 59.368 42.176 59.624 45.952C59.88 49.728 60.104 53.152 60.296 56.224C60.552 59.232 60.712 61.632 60.776 63.424C60.2 63.808 59.592 64.096 58.952 64.288C58.312 64.48 57.576 64.576 56.744 64.576C55.784 64.576 54.92 64.352 54.152 63.904C53.448 63.392 53.032 62.496 52.904 61.216C52.52 55.008 52.136 48.896 51.752 42.88C51.432 36.8 51.144 31.232 50.888 26.176C50.632 21.12 50.408 16.992 50.216 13.792H49.832C48.424 17.312 46.504 21.856 44.072 27.424C41.64 32.928 38.536 40.064 34.76 48.832ZM73.2935 42.112C73.1015 41.664 72.9415 41.216 72.8135 40.768C72.6855 40.256 72.6215 39.68 72.6215 39.04C72.6215 37.952 72.9095 37.152 73.4855 36.64C74.1255 36.064 74.9575 35.776 75.9815 35.776H98.9255C99.0535 36.16 99.1815 36.608 99.3095 37.12C99.5015 37.632 99.5975 38.176 99.5975 38.752C99.5975 39.776 99.3095 40.608 98.7335 41.248C98.1575 41.824 97.3255 42.112 96.2375 42.112H73.2935ZM141.134 40.288H121.358V28.576H141.134V40.288ZM135.662 31.264C141.294 31.264 145.966 31.872 149.678 33.088C153.39 34.304 156.174 36.064 158.03 38.368C159.95 40.672 160.91 43.52 160.91 46.912C160.91 53.184 158.542 57.856 153.806 60.928C149.07 64 142.318 65.536 133.55 65.536C132.078 65.536 130.318 65.472 128.27 65.344C126.222 65.216 124.142 64.96 122.03 64.576C119.918 64.256 117.998 63.776 116.27 63.136C112.75 61.792 110.99 59.456 110.99 56.128V11.296C110.99 9.952 111.374 8.928 112.142 8.224C112.91 7.456 113.902 6.848 115.118 6.4C117.294 5.632 120.014 5.088 123.278 4.768C126.606 4.384 129.966 4.192 133.358 4.192C141.486 4.192 147.758 5.6 152.174 8.41599C156.654 11.168 158.894 15.392 158.894 21.088C158.894 24.288 157.902 26.976 155.918 29.152C153.998 31.264 151.246 32.864 147.662 33.952C144.078 34.976 139.822 35.488 134.894 35.488L134.318 28.576C137.07 28.576 139.054 28.064 140.27 27.04C141.55 26.016 142.19 24.512 142.19 22.528C142.19 20.8 141.454 19.424 139.982 18.4C138.574 17.376 136.43 16.864 133.55 16.864C132.59 16.864 131.47 16.896 130.19 16.96C128.974 17.024 128.014 17.12 127.31 17.248V52C128.206 52.256 129.358 52.448 130.766 52.576C132.238 52.64 133.582 52.672 134.798 52.672C137.358 52.672 139.47 52.16 141.134 51.136C142.862 50.048 143.726 48.384 143.726 46.144C143.726 44.032 142.99 42.528 141.518 41.632C140.11 40.736 137.998 40.288 135.182 40.288L135.662 31.264ZM217.186 40.672C217.186 45.792 216.13 50.208 214.018 53.92C211.97 57.632 209.058 60.512 205.282 62.56C201.57 64.544 197.154 65.536 192.034 65.536C186.978 65.536 182.562 64.544 178.786 62.56C175.01 60.576 172.066 57.728 169.954 54.016C167.906 50.304 166.882 45.856 166.882 40.672C166.882 35.616 167.938 31.232 170.05 27.52C172.162 23.808 175.106 20.96 178.882 18.976C182.658 16.928 187.042 15.904 192.034 15.904C197.09 15.904 201.474 16.928 205.186 18.976C208.962 21.024 211.906 23.904 214.018 27.616C216.13 31.328 217.186 35.68 217.186 40.672ZM192.034 28.672C189.41 28.672 187.33 29.728 185.794 31.84C184.322 33.888 183.586 36.832 183.586 40.672C183.586 44.64 184.322 47.648 185.794 49.696C187.266 51.744 189.346 52.768 192.034 52.768C194.722 52.768 196.802 51.744 198.274 49.696C199.746 47.584 200.482 44.576 200.482 40.672C200.482 36.896 199.714 33.952 198.178 31.84C196.706 29.728 194.658 28.672 192.034 28.672ZM245.304 53.632C246.392 53.632 247.576 53.536 248.856 53.344C250.2 53.088 251.192 52.768 251.832 52.384V44.704L244.92 45.28C243.128 45.408 241.656 45.792 240.504 46.432C239.352 47.072 238.776 48.032 238.776 49.312C238.776 50.592 239.256 51.648 240.216 52.48C241.24 53.248 242.936 53.632 245.304 53.632ZM244.536 15.904C251.512 15.904 257.08 17.344 261.24 20.224C265.464 23.04 267.576 27.456 267.576 33.472V54.976C267.576 56.64 267.096 58.016 266.136 59.104C265.24 60.128 264.152 61.024 262.872 61.792C260.824 63.008 258.328 63.936 255.384 64.576C252.44 65.216 249.08 65.536 245.304 65.536C238.584 65.536 233.176 64.256 229.08 61.696C225.048 59.072 223.032 55.136 223.032 49.888C223.032 45.472 224.344 42.08 226.968 39.712C229.656 37.344 233.72 35.872 239.16 35.296L251.736 33.952V33.28C251.736 31.424 250.904 30.112 249.24 29.344C247.64 28.512 245.304 28.096 242.232 28.096C239.864 28.096 237.496 28.352 235.128 28.864C232.824 29.376 230.744 30.016 228.888 30.784C228.056 30.208 227.352 29.344 226.776 28.192C226.2 26.976 225.912 25.728 225.912 24.448C225.912 21.376 227.544 19.2 230.808 17.92C232.664 17.216 234.84 16.704 237.336 16.384C239.896 16.064 242.296 15.904 244.536 15.904ZM293.875 42.016H277.555V28.576C277.555 26.72 278.035 25.12 278.995 23.776C280.019 22.368 281.331 21.152 282.931 20.128C285.171 18.784 287.795 17.76 290.803 17.056C293.811 16.352 296.915 16 300.115 16C307.091 16 310.579 18.464 310.579 23.392C310.579 24.544 310.419 25.632 310.099 26.656C309.779 27.616 309.395 28.448 308.947 29.152C308.307 29.024 307.539 28.928 306.643 28.864C305.747 28.8 304.755 28.768 303.667 28.768C302.067 28.768 300.371 28.96 298.579 29.344C296.787 29.728 295.219 30.304 293.875 31.072V42.016ZM293.875 38.656V63.904C293.171 64.096 292.147 64.288 290.803 64.48C289.523 64.672 288.115 64.768 286.579 64.768C283.443 64.768 281.139 64.224 279.667 63.136C278.259 62.048 277.555 60.032 277.555 57.088V38.656H293.875ZM345.098 23.584H361.322V53.728C361.322 55.328 360.97 56.704 360.266 57.856C359.626 59.008 358.57 60.032 357.098 60.928C355.242 62.144 352.842 63.2 349.898 64.096C346.954 65.056 343.594 65.536 339.818 65.536C334.25 65.536 329.482 64.608 325.514 62.752C321.546 60.896 318.506 58.144 316.394 54.496C314.282 50.784 313.226 46.24 313.226 40.864C313.226 35.232 314.314 30.592 316.49 26.944C318.666 23.232 321.61 20.48 325.322 18.688C329.098 16.832 333.29 15.904 337.898 15.904C340.138 15.904 342.09 16.128 343.754 16.576C345.418 17.024 346.794 17.536 347.882 18.112V31.36C347.05 30.72 345.962 30.112 344.618 29.536C343.338 28.96 341.866 28.672 340.202 28.672C338.026 28.672 336.138 29.12 334.538 30.016C333.002 30.912 331.818 32.256 330.986 34.048C330.154 35.84 329.738 38.112 329.738 40.864C329.738 44.896 330.602 47.872 332.33 49.792C334.122 51.712 336.586 52.672 339.722 52.672C340.874 52.672 341.93 52.544 342.89 52.288C343.85 51.968 344.586 51.68 345.098 51.424V23.584ZM345.002 26.656V1.408C345.706 1.216 346.698 1.024 347.978 0.831995C349.322 0.639997 350.762 0.543999 352.298 0.543999C355.498 0.543999 357.802 1.088 359.21 2.17599C360.618 3.2 361.322 5.216 361.322 8.224V26.656H345.002Z" fill="white"/>
</svg>
