<svg width="265" height="73" viewBox="0 0 265 73" fill="none" xmlns="http://www.w3.org/2000/svg">
<path d="M3.184 32.656L2.704 14.512C2.704 11.632 2.384 9.36 1.744 7.696C1.104 6.032 0.784 5.136 0.784 5.008C0.784 3.59999 2.928 2.512 7.216 1.744C11.568 0.975996 14.864 0.591995 17.104 0.591995C19.408 0.591995 20.656 1.136 20.848 2.224C24.88 20.208 28.272 32.688 31.024 39.664C31.344 40.432 31.664 40.816 31.984 40.816C32.368 40.816 32.688 40.528 32.944 39.952C37.232 27.856 41.008 15.888 44.272 4.048C44.528 3.27999 45.168 2.70399 46.192 2.32C47.216 1.872 48.976 1.456 51.472 1.07199C54.032 0.687996 56.56 0.495996 59.056 0.495996C61.552 0.495996 62.8 1.008 62.8 2.032C62.8 2.096 62.704 2.608 62.512 3.568C62.32 4.464 62.128 5.584 61.936 6.928C61.744 8.272 61.52 9.904 61.264 11.824C60.688 16.24 60.304 21.328 60.112 27.088C59.984 32.784 59.92 38.512 59.92 44.272L60.112 54.352C60.112 58.96 60.4 62.256 60.976 64.24C61.616 66.16 61.936 67.28 61.936 67.6C61.936 67.856 61.712 68.176 61.264 68.56C59.28 70.16 56.272 70.96 52.24 70.96C49.68 70.96 48.24 70.096 47.92 68.368C47.728 67.472 47.632 66.064 47.632 64.144C47.632 62.16 47.824 56.144 48.208 46.096C48.592 36.048 48.784 28.752 48.784 24.208C48.784 19.6 48.528 17.296 48.016 17.296C47.952 17.296 47.92 17.328 47.92 17.392C47.92 17.392 47.824 17.424 47.632 17.488C47.44 17.552 46.928 18.544 46.096 20.464C45.328 22.384 43.76 27.12 41.392 34.672C39.024 42.224 36.88 49.296 34.96 55.888C33.04 62.416 31.984 65.936 31.792 66.448C31.088 68.176 29.744 69.04 27.76 69.04C26.8 69.04 26.032 68.688 25.456 67.984C23.408 58.512 19.76 44.976 14.512 27.376L11.824 18.64C11.696 18.32 11.568 18.16 11.44 18.16C11.12 18.16 10.896 18.384 10.768 18.832C10.512 22.992 10.384 31.184 10.384 43.408C10.384 55.568 10.832 63.248 11.728 66.448C11.792 66.576 11.824 66.768 11.824 67.024C11.824 68.368 10.768 69.36 8.656 70C6.544 70.576 4.624 70.864 2.896 70.864C1.232 70.864 0.4 70.48 0.4 69.712C0.4 69.648 0.56 69.136 0.88 68.176C1.84 64.912 2.448 60.176 2.704 53.968C3.024 47.76 3.184 40.656 3.184 32.656ZM81.742 26.8L81.838 38.8L81.454 55.408C81.518 55.664 81.614 55.792 81.742 55.792C81.87 55.792 81.966 55.728 82.03 55.6C83.31 53.808 84.878 52.912 86.734 52.912C88.654 52.912 89.614 53.296 89.614 54.064C89.614 56.496 90.062 58.384 90.958 59.728C91.918 61.008 93.23 61.648 94.894 61.648C96.622 61.648 98.254 60.496 99.79 58.192C101.39 55.888 102.19 52.816 102.19 48.976C102.19 47.696 101.934 46.16 101.422 44.368C100.398 40.784 98.478 38.384 95.662 37.168C93.614 36.336 90.286 35.92 85.678 35.92C85.166 35.92 84.91 35.568 84.91 34.864C84.91 31.28 85.55 29.424 86.83 29.296C88.558 29.296 90.382 28.848 92.302 27.952C96.142 26.16 98.062 22.48 98.062 16.912C98.062 10.896 94.606 7.888 87.694 7.888L84.718 8.08C83.566 8.336 82.926 8.816 82.798 9.51999V9.808C82.094 12.368 81.742 18.032 81.742 26.8ZM67.63 71.344L67.822 70.288C68.462 69.136 69.006 64.464 69.454 56.272C69.902 48.016 70.126 40.336 70.126 33.232C70.126 26.064 69.966 20.336 69.646 16.048C69.39 11.696 68.622 8.56 67.342 6.64C67.086 6.32 66.958 5.936 66.958 5.488C66.958 5.04 67.342 4.656 68.11 4.336C73.358 2.288 80.494 1.264 89.518 1.264C91.758 1.264 94.19 1.584 96.814 2.224C99.438 2.8 101.582 3.536 103.246 4.432C104.974 5.328 106.51 6.704 107.854 8.56C109.262 10.416 110.062 12.624 110.254 15.184C110.254 24.464 106.414 29.808 98.734 31.216C98.35 31.344 98.158 31.504 98.158 31.696C98.158 31.824 98.318 31.984 98.638 32.176C102.606 32.816 105.934 34.416 108.622 36.976C109.966 38.192 111.182 40.08 112.27 42.64C113.358 45.2 113.902 48.144 113.902 51.472C113.902 55.76 112.654 59.824 110.158 63.664C108.11 66.8 105.134 69.04 101.23 70.384C99.054 71.152 96.622 71.536 93.934 71.536C87.214 71.536 82.958 69.392 81.166 65.104C81.102 64.912 81.006 64.816 80.878 64.816L80.494 65.2C79.15 69.68 75.31 72.016 68.974 72.208C68.078 72.208 67.63 71.92 67.63 71.344ZM127.101 33.808C125.437 33.872 124.221 33.936 123.453 34C122.749 34 122.397 33.808 122.397 33.424C122.397 33.04 122.589 32.656 122.973 32.272C127.069 28.496 133.981 26.608 143.709 26.608C147.037 26.608 149.661 26.896 151.581 27.472L152.541 27.76C153.309 28.08 153.693 28.432 153.693 28.816C153.693 29.136 153.469 29.392 153.021 29.584C151.293 30.096 149.629 30.928 148.029 32.08C146.429 33.168 145.629 33.936 145.629 34.384L146.205 35.056C148.253 36.208 149.821 38.032 150.909 40.528C152.061 43.024 152.701 45.232 152.829 47.152L153.021 50.128C153.021 56.464 151.261 61.68 147.741 65.776C144.221 69.872 139.421 71.92 133.341 71.92C130.269 71.92 127.613 71.376 125.373 70.288C123.133 69.2 121.469 67.984 120.381 66.64C119.357 65.232 118.525 63.664 117.885 61.936C117.117 59.568 116.733 57.136 116.733 54.64C116.733 52.08 117.149 49.52 117.98 46.96C118.877 44.4 119.869 42.512 120.957 41.296C122.109 40.08 123.389 39.088 124.797 38.32C126.589 37.36 128.029 36.88 129.117 36.88C130.205 36.88 130.749 37.104 130.749 37.552L130.173 38.512C128.765 40.176 127.741 42.352 127.101 45.04C126.525 47.728 126.237 50.128 126.237 52.24C126.237 54.288 126.493 56.336 127.005 58.384C127.517 60.432 128.093 61.968 128.733 62.992C129.373 63.952 130.109 64.688 130.941 65.2C132.157 65.968 133.437 66.352 134.781 66.352C136.125 66.352 137.437 65.84 138.717 64.816C139.997 63.728 140.925 62.32 141.501 60.592C142.653 57.392 143.229 54.096 143.229 50.704C143.229 45.328 141.853 41.168 139.101 38.224C136.413 35.28 132.413 33.808 127.101 33.808ZM190.069 41.2L189.877 53.488C189.877 62 190.805 67.12 192.661 68.848C192.917 69.104 193.045 69.392 193.045 69.712C193.045 70.672 190.965 71.152 186.805 71.152C182.709 71.152 180.533 69.936 180.277 67.504C180.213 66.928 180.181 65.744 180.181 63.952L180.565 48.592C180.565 48.144 180.309 47.92 179.797 47.92C176.725 47.92 173.845 48.784 171.157 50.512C168.469 52.24 167.125 54.448 167.125 57.136C167.125 58.544 167.509 59.728 168.277 60.688C169.045 61.648 169.973 62.128 171.061 62.128C172.213 62.128 173.141 61.904 173.845 61.456C174.613 61.008 175.061 60.752 175.189 60.688C176.277 60.816 176.821 61.968 176.821 64.144C176.821 66.256 175.829 67.984 173.845 69.328C171.861 70.608 169.781 71.248 167.605 71.248C165.429 71.248 163.541 70.864 161.941 70.096C160.405 69.328 159.285 68.464 158.581 67.504C157.877 66.544 157.301 65.456 156.853 64.24C156.405 62.768 156.181 61.488 156.181 60.4C156.181 55.92 157.589 52.336 160.405 49.648C163.221 46.96 166.837 45.04 171.253 43.888C177.077 42.736 180.117 41.68 180.373 40.72C180.565 40.016 180.661 38.832 180.661 37.168C180.661 33.776 178.933 32.08 175.477 32.08C174.005 32.08 172.693 32.56 171.541 33.52C170.389 34.416 169.813 35.568 169.813 36.976L170.389 39.28C170.261 40.368 169.109 41.008 166.933 41.2L165.877 41.296C163.957 41.296 162.421 40.816 161.269 39.856C160.181 38.896 159.637 37.616 159.637 36.016C159.637 34.992 159.957 33.872 160.597 32.656C161.301 31.376 162.165 30.352 163.189 29.584C164.213 28.816 165.781 28.144 167.893 27.568C170.069 26.928 172.149 26.608 174.133 26.608C176.117 26.608 177.653 26.672 178.741 26.8C179.829 26.928 181.301 27.248 183.157 27.76C185.077 28.208 186.645 29.104 187.861 30.448C189.141 31.792 189.813 33.232 189.877 34.768C190.005 36.24 190.069 38.384 190.069 41.2ZM225.16 44.272L225.544 47.632C225.544 48.848 224.392 49.456 222.088 49.456C217.416 49.456 215.08 47.696 215.08 44.176C215.08 43.344 215.304 42.192 215.752 40.72C216.2 39.248 216.424 37.968 216.424 36.88C216.424 35.792 216.104 34.864 215.464 34.096C214.824 33.264 213.896 32.848 212.68 32.848C211.464 32.848 210.408 33.296 209.512 34.192C208.68 35.024 208.168 35.888 207.976 36.784L207.592 38.128C207.208 40.112 207.016 43.44 207.016 48.112C207.016 52.72 207.08 56.368 207.208 59.056C207.336 61.68 207.464 63.504 207.592 64.528C207.72 65.488 207.784 66.064 207.784 66.256C207.784 67.856 206.792 69.136 204.808 70.096C202.824 71.12 200.84 71.632 198.856 71.632C196.872 71.632 195.88 71.216 195.88 70.384L196.36 67.408C197.256 61.84 197.704 54.576 197.704 45.616C197.704 36.656 197.384 30.576 196.744 27.376C196.744 26.608 197.416 26.224 198.76 26.224C202.216 26.224 204.52 27.408 205.672 29.776C205.736 30.032 205.832 30.16 205.96 30.16C206.152 30.16 206.6 29.872 207.304 29.296C209.416 27.568 211.912 26.704 214.792 26.704C216.584 26.704 218.376 27.056 220.168 27.76C223.816 29.232 225.64 32.304 225.64 36.976L225.16 44.272ZM248.268 26.896C249.42 26.896 250.444 27.056 251.34 27.376C252.3 27.632 252.812 27.76 252.876 27.76L253.452 27.28L253.068 16.816C252.94 15.024 252.556 13.488 251.916 12.208C251.276 10.928 250.7 10.096 250.188 9.712L249.324 9.232C248.94 8.976 248.748 8.688 248.748 8.368C248.748 7.408 250.22 6.288 253.164 5.008C256.172 3.728 258.508 3.088 260.172 3.088C261.836 3.088 262.732 3.44 262.86 4.144C263.18 6.32 263.34 10.48 263.34 16.624C263.34 22.704 263.18 28.688 262.86 34.576C262.604 40.464 262.476 47.152 262.476 54.64C262.476 62.064 262.956 66.736 263.916 68.656C264.172 69.104 264.3 69.52 264.3 69.904C264.3 70.864 262.924 71.344 260.172 71.344C254.924 71.344 252.3 70.096 252.3 67.6C252.172 66.576 252.108 65.008 252.108 62.896C252.108 60.72 252.3 56.72 252.684 50.896C253.132 45.008 253.356 40.496 253.356 37.36C253.356 34.16 251.756 32.56 248.556 32.56C245.42 32.56 243.02 34.416 241.356 38.128C239.692 41.84 238.859 45.552 238.859 49.264C238.859 57.136 240.844 61.072 244.812 61.072C245.388 61.072 245.932 60.976 246.444 60.784C247.02 60.528 247.372 60.4 247.5 60.4C248.012 60.4 248.396 60.72 248.652 61.36C248.972 62 249.132 62.64 249.132 63.28C249.132 65.456 248.268 67.312 246.54 68.848C244.812 70.32 242.7 71.056 240.204 71.056C236.364 71.056 233.452 69.392 231.468 66.064C229.548 62.672 228.588 58.48 228.588 53.488C228.588 47.152 230.092 41.264 233.1 35.824C234.636 33.136 236.716 30.992 239.34 29.392C241.964 27.728 244.94 26.896 248.268 26.896Z" fill="white"/>
</svg>
